HIERARCHY
ROOT hip
{
	OFFSET 0.000000 0.000000 0.000000
	CHANNELS 6 Xposition Yposition Zposition Xrotation Zrotation Yrotation 
	JOINT abdomen
	{
		OFFSET 0.000000 3.422050 0.000000
		CHANNELS 3 Xrotation Zrotation Yrotation 
		JOINT chest
		{
			OFFSET 0.000000 8.486693 -0.684411
			CHANNELS 3 Xrotation Zrotation Yrotation 
			JOINT neck
			{
				OFFSET 0.000000 10.266162 -0.273764
				CHANNELS 3 Xrotation Zrotation Yrotation 
				JOINT head
				{
					OFFSET 0.000000 3.148285 0.000000
					CHANNELS 3 Xrotation Zrotation Yrotation 
					End Site
					{
						OFFSET 0.000000 3.148289 0.000000
					}
				}
			}
			JOINT lCollar
			{
				OFFSET 3.422053 6.707223 -0.821293
				CHANNELS 3 Yrotation Zrotation Xrotation 
				JOINT lShldr
				{
					OFFSET 3.285171 0.000000 0.000000
					CHANNELS 3 Zrotation Yrotation Xrotation 
					JOINT lForeArm
					{
						OFFSET 10.129278 0.000000 0.000000
						CHANNELS 3 Yrotation Zrotation Xrotation 
						JOINT lHand
						{
							OFFSET 8.486692 0.000000 0.000000
							CHANNELS 3 Zrotation Yrotation Xrotation 
							End Site
							{
								OFFSET 4.106464 0.000000 0.000000
							}
						}
					}
				}
			}
			JOINT rCollar
			{
				OFFSET -3.558935 6.707223 -0.821293
				CHANNELS 3 Yrotation Zrotation Xrotation 
				JOINT rShldr
				{
					OFFSET -3.148289 0.000000 0.000000
					CHANNELS 3 Zrotation Yrotation Xrotation 
					JOINT rForeArm
					{
						OFFSET -10.266159 0.000000 0.000000
						CHANNELS 3 Yrotation Zrotation Xrotation 
						JOINT rHand
						{
							OFFSET -8.349810 0.000000 0.000000
							CHANNELS 3 Zrotation Yrotation Xrotation 
							End Site
							{
								OFFSET -4.106464 0.000000 0.000000
							}
						}
					}
				}
			}
		}
	}
	JOINT lThigh
	{
		OFFSET 5.338403 -1.642589 1.368821
		CHANNELS 3 Xrotation Zrotation Yrotation 
		JOINT lShin
		{
			OFFSET -2.053232 -20.121670 0.000000
			CHANNELS 3 Xrotation Zrotation Yrotation 
			JOINT lFoot
			{
				OFFSET 0.000000 -19.300380 -1.231939
				CHANNELS 3 Xrotation Yrotation Zrotation 
				End Site
				{
					OFFSET 0.000000 -2.463878 4.653993
				}
			}
		}
	}
	JOINT rThigh
	{
		OFFSET -5.338403 -1.642589 1.368821
		CHANNELS 3 Xrotation Zrotation Yrotation 
		JOINT rShin
		{
			OFFSET 2.053232 -20.121670 0.000000
			CHANNELS 3 Xrotation Zrotation Yrotation 
			JOINT rFoot
			{
				OFFSET 0.000000 -19.300380 -1.231939
				CHANNELS 3 Xrotation Yrotation Zrotation 
				End Site
				{
					OFFSET 0.000000 -2.463878 4.653993
				}
			}
		}
	}
}
MOTION
Frames: 11
Frame Time: 0.033264
0.327403 15.744360 6.956507 -0.549934 0.000000 -180.000000 22.595812 0.000000 0.000000 9.113827 -0.154123 -0.223763 0.432905 -4.361803 -6.596484 -15.847769 -4.166245 0.287605 -23.272898 -4.069649 -35.170834 -30.566641 -36.601849 10.664792 17.113123 -65.171982 79.250412 72.346031 1.208593 -1.887590 24.123711 7.973733 -34.699680 29.239155 43.244926 10.265084 -4.867890 61.052391 66.986275 -74.839287 -1.538088 -3.105289 -117.595520 42.231770 -0.395541 105.886269 15.581644 -2.828253 -5.107114 0.718483 -3.325056 -117.600586 -42.247337 0.373251 105.896591 -15.606622 2.823478 -5.118466 -0.742919 3.318734 
0.327403 15.798878 6.980387 -1.101601 0.000000 -180.000000 21.943020 0.000000 0.000000 8.384993 -0.154138 -0.223723 -0.113083 -4.329279 -6.543332 -16.996662 -4.129574 0.290610 -23.527256 -4.823536 -34.391678 -30.566641 -36.601849 10.664792 17.196659 -63.876980 79.298851 72.402008 1.082911 -2.596014 24.240084 8.557913 -33.966694 29.239155 43.244926 10.265084 -5.015272 60.147629 67.092033 -74.790062 -1.436217 -3.642090 -117.860176 41.924145 -0.403168 105.886269 15.581644 -2.828253 -5.087186 1.011797 -3.584628 -117.865791 -41.939682 0.381725 105.896591 -15.606622 2.823478 -5.098245 -1.036080 3.578381 
0.327403 15.853396 7.004267 -1.653215 0.000000 -180.000000 21.290318 0.000000 0.000000 7.656281 -0.154153 -0.223683 -0.659103 -4.296249 -6.490490 -18.146311 -4.092825 0.292878 -23.771498 -5.580499 -33.615261 -30.566641 -36.601849 10.664792 16.140713 -62.617134 78.210922 72.459480 0.957949 -3.304419 24.349039 9.143353 -33.233963 29.239155 43.244926 10.265084 -5.155414 59.242985 67.190399 -74.741798 -1.333901 -4.178731 -118.123489 41.616512 -0.408855 105.886269 15.581644 -2.828253 -5.065930 1.305004 -3.844316 -118.129669 -41.632015 0.388253 105.896591 -15.606622 2.823478 -5.076693 -1.329133 3.838145 
0.327403 15.907914 7.028147 -2.204755 0.000000 -180.000000 20.637741 0.000000 0.000000 6.927742 -0.154167 -0.223643 -1.205129 -4.262712 -6.437960 -19.296488 -4.056019 0.294407 -24.005608 -6.340247 -32.841465 -30.566641 -36.601849 10.664792 15.175633 -61.345985 77.213600 72.518509 0.833737 -4.012757 24.450527 9.729877 -32.501408 29.239155 43.244926 10.265084 -5.288939 58.338539 67.281967 -74.694496 -1.231150 -4.715191 -118.385529 41.308895 -0.412633 105.886269 15.581644 -2.828253 -5.043342 1.598091 -4.104129 -118.392189 -41.324337 0.392858 105.896591 -15.606622 2.823478 -5.053811 -1.622065 4.098037 
0.327403 15.962432 7.052026 -2.756191 0.000000 -180.000000 19.985332 0.000000 0.000000 6.199442 -0.154180 -0.223602 -1.751139 -4.228676 -6.385752 -20.446959 -4.019180 0.295195 -24.229557 -7.102473 -32.070206 -30.566641 -36.601849 10.664792 14.290882 -60.064903 76.296371 72.579025 0.710303 -4.720974 24.544519 10.317303 -31.768993 29.239155 43.244926 10.265084 -5.416409 57.434475 67.367340 -74.648201 -1.127981 -5.251449 -118.646286 41.001305 -0.414533 105.886269 15.581644 -2.828253 -5.019424 1.891045 -4.364072 -118.653450 -41.016685 0.395577 105.896591 -15.606622 2.823478 -5.029598 -1.914861 4.358060 
0.327403 16.016951 7.075906 -3.307500 0.000000 -180.000000 19.333138 0.000000 0.000000 5.471438 -0.154193 -0.223561 -2.297107 -4.194145 -6.333872 -21.597498 -3.982328 0.295242 -24.443316 -7.866879 -31.301336 -30.566641 -36.601849 10.664792 13.477411 -58.775116 75.450157 72.641037 0.587676 -5.429023 24.630985 10.905458 -31.036671 29.239155 43.244926 10.265084 -5.538300 56.530861 67.446938 -74.602875 -1.024407 -5.787483 -118.905785 40.693733 -0.414577 105.886269 15.581644 -2.828253 -4.994174 2.183852 -4.624155 -118.913429 -40.709076 0.396431 105.896591 -15.606622 2.823478 -5.004055 -2.207511 4.618226 
0.327403 16.071468 7.099786 -3.858657 0.000000 -180.000000 18.681194 0.000000 0.000000 4.743783 -0.154206 -0.223521 -2.843004 -4.159123 -6.282329 -22.747866 -3.945487 0.294546 -24.646862 -8.633171 -30.534746 -30.566641 -36.601849 10.664792 12.727424 -57.477757 74.667191 72.704544 0.465882 -6.136855 24.709883 11.494157 -30.304365 29.239155 43.244926 10.265084 -5.655056 55.627831 67.521240 -74.558517 -0.920440 -6.323271 -119.164047 40.386219 -0.412786 105.886269 15.581644 -2.828253 -4.967594 2.476502 -4.884386 -119.172188 -40.401501 0.395448 105.896591 -15.606622 2.823478 -4.977180 -2.500001 4.878541 
0.327403 16.125986 7.123666 -4.409633 0.000000 -180.000000 18.029547 0.000000 0.000000 4.016542 -0.154218 -0.223480 -3.388809 -4.123615 -6.231127 -23.897833 -3.908677 0.293110 -24.840185 -9.401050 -29.770336 -30.566641 -36.601849 10.664792 12.034167 -56.173794 73.940681 72.769501 0.344949 -6.844415 24.781176 12.083220 -29.572031 29.239155 43.244926 10.265084 -5.767067 54.725517 67.590622 -74.515152 -0.816099 -6.858793 -119.421120 40.078762 -0.409203 105.886269 15.581644 -2.828253 -4.939682 2.768981 -5.144769 -119.429741 -40.093987 0.392657 105.896591 -15.606622 2.823478 -4.948974 -2.792318 5.139011 
0.327403 16.180504 7.147546 -4.960408 0.000000 -180.000000 17.378237 0.000000 0.000000 3.289767 -0.154229 -0.223439 -3.934497 -4.087626 -6.180276 -25.047180 -3.871922 0.290936 -25.023249 -10.170218 -29.007946 -30.566641 -36.601849 10.664792 11.391805 -54.864201 73.264832 72.835892 0.224903 -7.551655 24.844860 12.672480 -28.839624 29.239155 43.244926 10.265084 -5.874699 53.824024 67.655457 -74.472801 -0.711394 -7.394029 -119.677002 39.771385 -0.403836 105.886269 15.581644 -2.828253 -4.910437 3.061275 -5.405316 -119.686089 -39.786545 0.388082 105.896591 -15.606622 2.823478 -4.919435 -3.084450 5.399646 
0.327403 16.235022 7.171426 -5.510952 0.000000 -180.000000 16.727304 0.000000 0.000000 2.563522 -0.154240 -0.223397 -4.480041 -4.051164 -6.129782 -26.195658 -3.835245 0.288025 -25.196049 -10.940382 -28.247484 -30.566641 -36.601849 10.664792 10.795232 -53.549786 72.634483 72.903732 0.105771 -8.258526 24.900871 13.261741 -28.107052 29.239155 43.244926 10.265084 -5.978272 52.923496 67.716072 -74.431404 -0.606340 -7.928953 -119.931732 39.464096 -0.396716 105.886269 15.581644 -2.828253 -4.879859 3.353371 -5.666031 -119.941277 -39.479198 0.381741 105.896591 -15.606622 2.823478 -4.888562 -3.376382 5.660450 
0.327403 16.289539 7.195305 -6.061241 0.000000 -180.000000 16.076797 0.000000 0.000000 1.837862 -0.154250 -0.223356 -5.025416 -4.014229 -6.079649 -27.343052 -3.798665 0.284382 -25.358551 -11.711248 -27.488787 -30.566641 -36.601849 10.664792 10.239993 -52.231342 72.045197 72.972969 -0.012421 -8.964975 24.949192 13.850834 -27.374271 29.239155 43.244926 10.265084 -6.078071 52.024021 67.772736 -74.391037 -0.500955 -8.463552 -120.185333 39.156906 -0.387869 105.886269 15.581644 -2.828253 -4.847947 3.645256 -5.926920 -120.195351 -39.171951 0.373669 105.896591 -15.606622 2.823478 -4.856359 -3.668103 5.921433 
